<svg xmlns="http://www.w3.org/2000/svg" width="256" height="252" viewBox="0 0 256 252"><clipPath id="a"><path d="M0 0h256v252H0z"/></clipPath><g clip-path="url(#a)"><path fill="#1a1208" d="M71.94 14.952c6.798-.204 14.423.003 21.302.023l40.962.082 32.704-.059c5.702-.013 11.518-.265 17.205.026 1.825.093 4.396.176 5.843 1.391 3.14 2.637 16.168 26.381 19.455 32.031l30.343 52.186c3.642 6.256 7.368 12.417 11.157 18.584 2.868 4.668 2.641 7.944-.044 12.642-4.935 8.631-10.056 17.223-15.112 25.818l-25.562 43.838-12.487 21.329c-1.738 2.988-3.408 6.023-5.217 8.973-2.206 3.598-3.897 4.538-8.06 4.758-7.783.158-16.003.029-23.81.027l-46.451-.072q-11.04-.075-22.078.02c-7.013.06-14.036.174-21.042-.212-1.435-.079-3.088-.15-4.191-1.072-1.153-.962-2.205-2.38-2.994-3.65-4.48-7.215-8.731-14.704-13.007-22.04l-26.377-45.392-13.245-22.521c-2.907-4.95-7.103-10.339-8.151-16.09-.255-1.401.994-3.452 1.676-4.716 4.635-8.587 9.661-16.963 14.575-25.394l26.412-45.08a2154 2154 0 0 0 12.133-20.933c2.248-3.898 4.666-8.26 7.262-11.913 1.424-2.002 4.511-2.368 6.8-2.584"/><path fill="#e8931a" d="m74.853 29.938 106.4.027c2.434 3.429 5.07 8.375 7.245 12.11l12.575 21.571a3439 3439 0 0 1 36.169 62.063l-35.024 59.983c-6.75 11.584-13.805 24.782-21.16 35.735-.683.177-6.9.156-7.834.157q-12.052.03-24.103-.105l-74.229-.098a6770 6770 0 0 1-55.857-95.675c18.828-31.517 37.324-63.998 55.818-95.768"/><path fill="#1a1208" d="M125.99 56.839c12.8-1.767 23.792 9.598 22.45 22.318-.249 2.361-.659 4.008-1.298 6.319 3.02 2.442 4.729 4.28 7.308 7.122 10.129-2.783 26.493-5.873 36.874-6.122 5.28-.128 11.264 3.107 14.867 7.108a22.59 22.59 0 0 1 5.71 16.551c-.448 7.197-3.644 12.123-8.87 16.74 4.838 4.68 7.836 9.173 8.436 16.124a22.79 22.79 0 0 1-5.29 16.852 21.72 21.72 0 0 1-15.026 7.544c-10.904.743-18.546-6.438-26.178-13.1-4.272 17.635-13.08 26.665-26.49 38.012-2.472 2.093-5.541 5.098-8.151 6.743-1.201.613-2.215 1.21-3.52.413-3.296-2.014-6.163-4.764-9.179-7.163-13.57-10.798-21.417-20.985-26.351-37.93-7.652 6.735-14.994 13.497-25.914 13.094a21.03 21.03 0 0 1-14.76-6.921 23.3 23.3 0 0 1-6.02-16.707c.316-7.272 3.482-12.123 8.628-16.87-7.232-6.42-10.671-13.901-8.335-23.72a22.36 22.36 0 0 1 9.986-13.662 22.1 22.1 0 0 1 9.159-3.09c7.621-.737 30.117 4.172 37.905 6.122 2.193-2.605 4.912-5.114 7.427-7.409-2.428-6.11-1.433-14.724 2.42-20.061 3.602-4.992 8.29-7.298 14.211-8.307"/><path fill="#fef9e8" d="m118.37 101.09.221.363c-1.46 9.447-19.895 35.73-26.758 43.094-5.847 6.273-15.205 16.441-24.413 16.716-5.09.153-8.154-1.209-11.814-4.472a17 17 0 0 1-3.253-4.64 17.15 17.15 0 0 1-.626-13.022c1.132-3.158 3.328-6.022 6.077-7.863 6.396-4.284 14.71-7.976 21.694-11.383z"/><path fill="#fef9e8" d="M137.599 101.257c3.453 1.218 7.587 3.353 10.9 4.973l14.204 6.9 18.357 8.896c5.921 2.843 14.01 6.185 18.925 10.415 7.31 6.293 6.897 17.158.896 24.078-4.854 4.607-12.716 6.513-18.566 3.05-19.165-11.347-37.264-37.824-44.716-58.312"/><path fill="#fef9e8" d="M188.213 92.795c6.433-.945 12.538 2.41 15.61 8.08a16.58 16.58 0 0 1 1.298 12.638c-1.386 4.643-3.8 7.234-8.012 9.491a639 639 0 0 0-17.378-8.673c-8.815-4.457-18.282-8.83-27.214-13.23 8.05-4.24 26.71-7.073 35.696-8.306"/><path fill="#fef9e8" d="M64.364 92.752c2.8-.19 8.124.7 11.03 1.194 9.775 1.665 19.358 3.268 28.545 7.086a872 872 0 0 0-24.298 11.795 2111 2111 0 0 1-20.912 10.317c-4.076-2.703-6.742-5.7-7.906-10.602a16.37 16.37 0 0 1 2.1-12.5c2.89-4.577 6.399-6.16 11.44-7.29"/><path fill="#e8931a" d="M147.794 133.528c3.23 4.104 4.623 6.45 8.415 10.66-2.95 1.337-5.347 2.029-8.443 2.841-16.913 3.774-31.254 3.137-47.562-2.795 2.94-3.63 5.265-6.67 7.916-10.52 14.259 2.29 25.455 2.16 39.674-.186"/><path fill="#e8931a" d="M99.75 161.315c3.287.661 7.771 2.719 11.721 3.485 15.469 3.002 30.42 2.349 44.982-3.717-1.16 3.524-2.852 6.003-5 8.985-1.544 2.081-4.96 6.678-7.328 7.833-8.045 3.922-21.472 2.638-29.906.908-6.115-1.254-11.857-12.209-14.469-17.494"/><path fill="#e8931a" d="M125.306 86.063c9.467-.874 15.78 2.343 22.605 8.714-1.528.595-3.223 1.127-4.79 1.65-6.752-3.256-14.784-7.092-11.736 4.78 1.494 5.815 3.466 10.16 6.007 15.49a202 202 0 0 0-7.005-.303c-4.396-.023-7.547.09-11.915.549a123 123 0 0 0 2.188-4.218c2.228-4.57 5.845-13.008 4.649-18.185-.936-4.05-10.277.983-12.32 1.93-1.39-.548-3.006-.962-4.456-1.373 4.929-5.355 9.707-7.855 16.773-9.034"/></g></svg>