<svg xmlns="http://www.w3.org/2000/svg" width="256" height="247" viewBox="0 0 256 247"><clipPath id="a"><path d="M0 0h256v247H0z"/></clipPath><g clip-path="url(#a)"><path fill="#1a1208" d="m64.213-.28.597.131c.408.873-3.17 17.092-3.405 19.681 2.285 1.499 5.311 3.176 7.701 4.613a912 912 0 0 1 13.024 8.03c9.764-5.532 19.365-11.881 29.021-17.624 3.866-2.3 10.853-6.884 14.662-8.336 3.95 1.657 9.542 5.344 13.28 7.567 9.85 5.86 19.727 12.746 29.802 18.173 7.46-3.994 13.895-8.385 21.08-12.532-.775-6.327-2.682-12.98-3.402-19.533 1.581-.143 9.093-.286 10.307.107.631.967 2.838 13.824 3.311 16.128 3.376-2.096 6.74-4.112 10.436-5.589 3.981 1.892 9.411 5.316 13.322 7.713 8.945 5.486 17.679 10.951 26.717 16.31-.118 3.229-.104 6.59-.104 9.826-5.283-3.493-11.108-6.801-16.558-10.093l-22.518-13.853c-10.316 6.082-20.578 12.69-30.84 18.662 1.13 1.036 9.145 5.756 10.779 6.747l20.195 12.418c4.888 2.98 11.109 6.407 15.442 10.027.685 5.551.422 14.013.42 19.828l.026 31.914c4.86-2.641 9.573-5.836 14.43-8.52 2.874-1.587 5.687-3.497 8.617-4.966q-.013 5.49.07 10.978c-4.086 2.339-8.412 5.083-12.456 7.535 4.023 2.565 8.329 5.07 12.419 7.58.067 3.386-.038 7.131-.042 10.55-7.482-4.304-15.871-9.195-23.07-13.816-.148 12.599.06 25.226-.015 37.827-.022 3.898.455 9.87-.716 13.48-2.656 2.496-9.79 6.474-13.121 8.577-10.538 6.657-21.75 12.806-32.154 19.657a1546 1546 0 0 1 18.358 11.294c3.737 2.31 8.172 5.17 12.053 7.094 9.575-5.435 19.28-12.116 28.851-17.697 3.188-1.858 6.442-4.068 9.684-5.79l.05 10.348c-5.972 3.8-12.288 7.439-18.355 11.15l-10.813 6.619c-2.736 1.673-8.115 5.25-10.921 5.95-3.193-.722-7.441-3.471-10.222-5.332-.76 5.019-2.087 11.263-3.13 16.287-3.35-.078-7.433.11-10.571-.07.239-2.288.944-5.404 1.414-7.718l2.422-11.983c-1.028-.835-5.479-3.417-6.793-4.216a931 931 0 0 0-14.131-8.553c-9.55 5.546-19.051 11.836-28.673 17.451-3.52 1.93-11.491 7.461-14.72 8.4-1.811.526-18.605-10.385-20.351-11.472a2064 2064 0 0 0-23.574-14.33c-5.156 2.962-10.212 6.18-15.327 9.217a97 97 0 0 0-5.416 3.441c.951 6.309 2.504 13.584 3.756 19.873-3.549-.08-7.112-.056-10.665-.12-.515-4.158-2.103-12.221-3.181-16.228-2.549 1.323-8.855 6.546-11.524 5.136-4.626-2.445-9.326-5.492-13.802-8.256-8.18-5.053-16.863-9.853-24.759-15.308l-.137-10.065c5.294 2.853 12.037 7.29 17.332 10.471 6.87 4.13 14.762 8.693 21.352 13.113 1.666-.835 4.545-2.676 6.216-3.672l16.075-9.75c2.576-1.573 5.72-3.672 8.324-5.012-3.642-2.394-7.779-4.825-11.52-7.116l-18.288-11.168c-4.95-2.984-10.25-5.859-14.758-9.43-1.54-1.202-1.462-2.888-1.478-4.688-.035-3.637-.024-7.306-.022-10.945l.04-23.424c.015-4.474.13-8.72.027-13.214A1095 1095 0 0 1 .987 142.989c-.15-3.16-.042-7.212-.05-10.44 2.98-2.166 8.842-5.264 12.361-7.514-3.663-2.452-8.484-5.03-12.338-7.414-.095-3.53-.108-7.857.011-11.367 2.825 1.456 5.649 3.314 8.382 4.957 4.965 2.985 9.896 6.126 14.939 8.97.222-4.487.064-10.378.03-14.93l-.11-22.995c-.009-2.07-.457-13.071.718-14.246 2.5-2.5 7.687-5.355 10.87-7.28l11.837-7.185c7.708-4.662 15.59-9.734 23.337-14.197-3.699-2.799-10.286-6.45-14.43-8.945-5.44-3.275-10.849-6.813-16.26-10.026-5.747 3.672-12.068 7.32-17.93 10.93-6.737 4.15-14.24 8.924-21.125 12.732-.092-3.222-.05-6.458-.156-9.737l24.788-15.021c4.584-2.804 9.625-6.359 14.514-8.447 1.642-.701 9.14 4.27 11.094 5.288 1.1-5.235 1.998-11.006 2.953-16.315 3.165-.096 6.567-.018 9.79-.087"/><path fill="#e7921a" d="M124.735 19.056c1.823-.08 2.706.412 4.253 1.314 5.73 3.337 11.311 7.017 16.972 10.482l38.333 23.469 19.4 11.817c3.233 1.956 9.456 5.437 12.054 7.755.524 1.371.672 2.946.682 4.407.043 7.57.025 15.164.023 22.73l-.007 43.988.013 18.631c.001 3.293.166 6.946-.298 10.213-.074.526-.783 1.475-1.224 1.769-3.502 2.348-7.147 4.463-10.764 6.63l-17.434 10.557-60.073 36.56c-1.086.147-1.892.246-2.886-.32-1.797-1.027-3.549-2.125-5.312-3.207l-10.064-6.167-31.215-19.064-26.35-16.08c-4.178-2.552-11.542-6.79-15.153-9.68-.267-.937-.435-2.815-.442-3.799-.047-7.054-.016-14.132-.012-21.186l.01-41.65-.028-19.37c-.006-2.03-.237-12.169.429-14.692.133-.504 3.281-2.528 3.948-2.943 28.235-17.551 57.072-34.372 85.145-52.164"/><path fill="#1a1208" d="M125.103 75.755c.843-.023 1.662.04 2.5.128a18 18 0 0 1 12.267 6.822c4.066 5.144 4.576 10.329 3.825 16.617 3.215-1.732 6.375-3.81 9.493-5.733l14.294-8.745c9.03-5.502 8.36-6.391 19.224-6.045 7.894.252 17.711-2.28 18.904 9.665.388 3.879.236 10.994-.618 15.036-3.633 6.674-10.314 13.563-15.317 19.468 2.29 2.79 4.743 5.886 6.973 8.74 2.287 2.928 7.39 8.358 8.362 11.71 1.032 3.559.65 11.35.544 15.208-.07 2.588-1.436 5.7-3.463 7.261-1.421 1.094-2.852 1.715-4.643 2.002-3.566.572-7.316.129-10.954.149-4.013.023-8.083.236-12.07-.073-1.421-.15-3.283-.573-4.44-1.472-5.201-4.041-8.706-10.28-13.055-15.217-1.145-1.3-2.076-2.866-3.162-4.185q-.05.922-.111 1.846c-.941 13.985-6.618 26.395-16.12 36.587-3.863 4.145-7.79 7.54-12.044 11.254-.899-.505-1.782-1.25-2.549-1.935-16.312-14.617-23.75-25.907-25.24-48.04-4.679 5.674-8.79 11.75-13.789 17.22-5.437 5.951-10.95 3.788-17.9 4.02-10.551.352-21.058 1.766-20.61-12.814.115-3.717-.273-7.975.672-11.68 2.653-5.93 11.552-15.706 15.463-20.285-4.517-5.809-12.637-13.93-15.543-20.469-.796-1.792-.648-13.4-.218-15.824.21-1.25.632-2.455 1.248-3.562 1.945-3.438 5.632-4.664 9.392-4.624 3.61.213 15.274-.808 18.104.71 10.143 5.44 23.146 14.21 33.005 19.802-.161-.736-.261-1.507-.35-2.256a19.02 19.02 0 0 1 3.903-14.107c3.606-4.512 8.397-6.586 14.023-7.18"/><path fill="#fef7e6" d="M54.776 84.623c2.277-.068 16.157-.267 17.35.305 4.696 2.252 13.659 8.063 18.583 10.993 5.988 3.563 12.129 7.35 18.108 10.984.69.419.87.649 1.287 1.297.45.702.633 2.16.382 2.895-.96 2.82-8.315 6.373-11.058 7.933-3.812 2.348-7.926 5.32-12.12 6.907-3.937 1.492-11.883.984-15.667-.84-.965-.465-1.732-1.2-2.477-1.957-2.91-2.956-16.599-19.126-17.533-22.039-.81-2.528-.85-12.32.386-14.633.581-1.087 1.657-1.478 2.76-1.845"/><path fill="#fef7e6" d="M180.213 84.641c5.196-.144 12.902-.568 17.77.595 3.006 1.324 2.165 15.687.97 17.236-5.818 7.421-11.979 15.605-18.504 22.338-2.707 2.793-14.783 2.358-18.37.209-6.195-3.797-12.709-7.171-18.833-11.117-2.682-1.727-3.501-5.316-.42-7.067 10.66-6.056 20.662-13.174 31.265-19.318 1.85-1.073 4.084-2.304 6.122-2.876"/><path fill="#fef7e6" d="M150.465 125.567c4.471.568 9.174 5.965 14.17 6.571 1.835.224 3.275.224 5.06.28 6.972.221 10.667-.635 16.286-4.673 2.657 3.041 12.767 14.874 13.536 17.801 1.053 4.015.386 9.697.226 13.91-2.05 3.938-6.318 2.918-10.17 2.81-2.695-.074-15.149.623-16.46-.62-4.012-3.799-8.071-9.44-11.44-13.817a572 572 0 0 1-8.913-11.863c-1.367-1.87-2.951-3.871-4.048-5.887-.965-1.774.386-3.51 1.753-4.512"/><path fill="#fef7e6" d="M99.904 125.558c6.341 1.493-.732 9.078-2.464 11.44a685 685 0 0 1-12.718 16.996c-1.594 2.039-4.393 5.708-6.518 7.474-.682.557-2.046.844-2.945.867-6.764.17-13.661.128-20.414-.148-1.511-.062-2.491-1.155-3.264-2.32a6.5 6.5 0 0 1-.17-.845c-.36-2.944-.51-11.45.417-14.133.675-1.952 11.265-14.6 13.448-17.348 5.834 4.443 7.828 4.387 14.793 4.895 9.127.668 12.213-2.726 19.835-6.878"/><path fill="#e7921a" d="M142.97 131.035c.274.303 1.173 2.161 1.45 2.646 1.581 2.762 3.461 5.254 5.343 7.813l.033 3.66c-2.041 1.213-4.302 2.592-6.474 3.505-12.273 5.161-23.764 4.644-35.916-.007-2.053-.919-3.665-1.779-5.595-2.882l.067-5.532c2.801-3.953 3.993-4.14 5.964-9.125 11.648 6.036 23.632 6.775 35.128-.078"/><path fill="#e7921a" d="M104.265 163.043c2.127.684 4.225 1.966 6.318 2.692 13.74 4.77 23.304 2.918 35.937-2.815-.97 2.62-2.116 4.802-3.405 7.256l-2.49 4.411c-12.658 4.842-18.2 5.822-30.954.008-2.433-3.624-3.99-7.467-5.406-11.552"/></g></svg>