<?xml version="1.0" encoding="utf-8" ?><svg xmlns="http://www.w3.org/2000/svg" xmlns:xlink="http://www.w3.org/1999/xlink" width="1412" height="1361" viewBox="0 0 1412 1361"><clipPath id="cl_3"><rect width="1412" height="1361"/></clipPath><g clip-path="url(#cl_3)"><path fill="#1A1208" transform="translate(-331 -339)" d="M685.175 337.458L688.471 338.182C690.719 342.988 670.983 432.361 669.69 446.627C682.292 454.883 698.982 464.125 712.164 472.044C736.232 486.592 760.177 501.342 783.997 516.291C837.853 485.806 890.81 450.823 944.069 419.177C965.39 406.509 1003.93 381.246 1024.94 373.246C1046.73 382.378 1077.57 402.69 1098.19 414.943C1152.51 447.232 1206.99 485.174 1262.56 515.078C1303.71 493.071 1339.2 468.877 1378.83 446.022C1374.56 411.163 1364.04 374.507 1360.07 338.392C1368.79 337.609 1410.22 336.818 1416.92 338.986C1420.4 344.315 1432.57 415.155 1435.18 427.851C1453.8 416.301 1472.36 405.192 1492.74 397.056C1514.7 407.478 1544.65 426.345 1566.22 439.557C1615.56 469.782 1663.73 499.899 1713.58 529.426C1712.93 547.215 1713.01 565.737 1713.01 583.568C1683.87 564.322 1651.74 546.091 1621.68 527.953L1497.48 451.622C1440.58 485.134 1383.98 521.546 1327.38 554.451C1333.61 560.162 1377.82 586.171 1386.83 591.63L1498.22 660.054C1525.18 676.47 1559.49 695.357 1583.39 715.302C1587.17 745.891 1585.72 792.519 1585.71 824.556L1585.85 1000.41C1612.66 985.856 1638.65 968.249 1665.44 953.464C1681.29 944.72 1696.81 934.192 1712.97 926.098C1712.92 946.263 1713.05 966.428 1713.36 986.591C1690.82 999.475 1666.96 1014.6 1644.65 1028.11C1666.84 1042.24 1690.59 1056.04 1713.15 1069.87C1713.52 1088.53 1712.94 1109.17 1712.92 1128.01C1671.65 1104.29 1625.38 1077.34 1585.67 1051.88C1584.86 1121.3 1586 1190.88 1585.59 1260.31C1585.47 1281.79 1588.1 1314.7 1581.64 1334.59C1566.99 1348.34 1527.64 1370.26 1509.27 1381.85C1451.15 1418.53 1389.31 1452.41 1331.92 1490.16C1365.82 1510.67 1399.57 1531.41 1433.18 1552.39C1453.79 1565.12 1478.25 1580.88 1499.66 1591.48C1552.47 1561.53 1606 1524.72 1658.79 1493.97C1676.37 1483.73 1694.32 1471.55 1712.2 1462.06L1712.48 1519.08C1679.54 1540.02 1644.7 1560.07 1611.24 1580.52L1551.6 1616.99C1536.51 1626.21 1506.84 1645.92 1491.36 1649.78C1473.75 1645.8 1450.32 1630.65 1434.98 1620.4C1430.79 1648.05 1423.47 1682.46 1417.72 1710.14C1399.24 1709.71 1376.72 1710.75 1359.41 1709.75C1360.73 1697.15 1364.62 1679.98 1367.21 1667.23L1380.57 1601.2C1374.9 1596.6 1350.35 1582.37 1343.1 1577.97C1317.26 1562.03 1291.28 1546.32 1265.16 1530.84C1212.49 1561.4 1160.08 1596.06 1107.01 1627C1087.6 1637.63 1043.63 1668.11 1025.82 1673.28C1015.83 1676.18 923.203 1616.06 913.571 1610.07C870.406 1583.46 827.064 1557.14 783.549 1531.11C755.107 1547.43 727.222 1565.16 699.01 1581.9C688.969 1587.85 678.758 1594.25 669.138 1600.86C674.383 1635.62 682.949 1675.71 689.851 1710.36C670.28 1709.92 650.625 1710.05 631.026 1709.7C628.186 1686.79 619.431 1642.36 613.481 1620.28C599.424 1627.57 564.643 1656.35 549.919 1648.58C524.406 1635.11 498.482 1618.32 473.797 1603.09C428.682 1575.25 380.785 1548.8 337.233 1518.74L336.475 1463.28C365.677 1479 402.867 1503.45 432.073 1520.98C469.962 1543.74 513.495 1568.88 549.845 1593.23C559.032 1588.63 574.914 1578.49 584.13 1573L672.793 1519.28C687.004 1510.61 704.338 1499.04 718.707 1491.66C698.617 1478.47 675.8 1465.07 655.163 1452.45L554.298 1390.91C526.993 1374.47 497.757 1358.63 472.895 1338.95C464.397 1332.33 464.834 1323.04 464.741 1313.12C464.553 1293.08 464.612 1272.86 464.62 1252.81L464.844 1123.74C464.928 1099.09 465.555 1075.69 464.992 1050.93C422.457 1076.78 379.606 1102.1 336.446 1126.89C335.615 1109.48 336.212 1087.15 336.169 1069.36C352.609 1057.43 384.939 1040.36 404.349 1027.96C384.142 1014.45 357.553 1000.24 336.296 987.108C335.774 967.653 335.699 943.813 336.359 924.474C351.936 932.494 367.514 942.737 382.587 951.788C409.975 968.235 437.169 985.541 464.986 1001.21C466.212 976.487 465.341 944.028 465.155 918.942L464.543 792.24C464.498 780.839 462.022 720.219 468.503 713.746C482.293 699.973 510.904 684.236 528.462 673.631L593.746 634.042C636.263 608.355 679.741 580.405 722.467 555.811C702.066 540.392 665.731 520.271 642.872 506.523C612.876 488.482 583.038 468.987 553.193 451.281C521.492 471.516 486.629 491.618 454.298 511.51C417.139 534.373 375.75 560.676 337.779 581.662C337.27 563.905 337.501 546.077 336.92 528.009L473.64 445.239C498.925 429.79 526.728 410.204 553.693 398.698C562.75 394.833 604.11 422.227 614.886 427.834C620.953 398.987 625.903 367.189 631.171 337.938C648.63 337.406 667.394 337.836 685.175 337.458Z"/><path fill="#E7921A" transform="translate(-331 -339)" d="M1018.99 443.999C1029.05 443.556 1033.92 446.272 1042.45 451.241C1074.05 469.631 1104.84 489.909 1136.06 508.997L1347.49 638.316L1454.5 703.432C1472.33 714.206 1506.65 733.386 1520.98 746.162C1523.87 753.717 1524.69 762.391 1524.74 770.446C1524.98 812.152 1524.88 853.997 1524.87 895.694L1524.83 1138.07L1524.9 1240.73C1524.91 1258.87 1525.82 1279 1523.26 1297C1522.85 1299.9 1518.94 1305.13 1516.51 1306.75C1497.19 1319.69 1477.09 1331.34 1457.14 1343.28L1360.98 1401.45L1029.64 1602.9C1023.65 1603.71 1019.2 1604.26 1013.72 1601.14C1003.81 1595.48 994.145 1589.43 984.419 1583.47L928.911 1549.49L756.742 1444.44L611.404 1355.84C588.361 1341.78 547.743 1318.43 527.827 1302.5C526.355 1297.34 525.427 1286.99 525.39 1281.57C525.126 1242.7 525.3 1203.7 525.319 1164.83L525.375 935.332L525.221 828.603C525.188 817.419 523.916 761.551 527.587 747.648C528.32 744.872 545.686 733.719 549.366 731.433C705.097 634.723 864.152 542.039 1018.99 443.999Z"/><path fill="#1A1208" transform="translate(-331 -339)" d="M1021.02 756.418C1025.67 756.293 1030.19 756.636 1034.81 757.123C1061.52 759.983 1085.93 773.546 1102.47 794.717C1124.9 823.058 1127.71 851.629 1123.57 886.275C1141.3 876.735 1158.73 865.285 1175.93 854.687L1254.77 806.5C1304.58 776.185 1300.88 771.286 1360.8 773.195C1404.34 774.583 1458.49 760.631 1465.07 826.449C1467.21 847.821 1466.37 887.026 1461.66 909.299C1441.62 946.075 1404.77 984.034 1377.18 1016.57C1389.81 1031.94 1403.34 1049 1415.64 1064.73C1428.25 1080.86 1456.4 1110.78 1461.76 1129.25C1467.45 1148.86 1465.34 1191.79 1464.76 1213.05C1464.37 1227.31 1456.84 1244.46 1445.66 1253.06C1437.82 1259.09 1429.93 1262.51 1420.05 1264.09C1400.38 1267.24 1379.7 1264.8 1359.63 1264.91C1337.5 1265.04 1315.05 1266.21 1293.06 1264.51C1285.22 1263.68 1274.95 1261.35 1268.57 1256.4C1239.88 1234.13 1220.55 1199.75 1196.56 1172.55C1190.25 1165.39 1185.11 1156.76 1179.12 1149.49C1178.94 1152.88 1178.73 1156.27 1178.51 1159.66C1173.32 1236.72 1142.01 1305.1 1089.6 1361.26C1068.29 1384.1 1046.63 1402.81 1023.17 1423.27C1018.21 1420.49 1013.34 1416.39 1009.11 1412.61C919.139 1332.07 878.114 1269.86 869.899 1147.9C844.087 1179.17 821.411 1212.65 793.84 1242.79C763.851 1275.58 733.443 1263.66 695.114 1264.94C636.914 1266.88 578.959 1274.67 581.435 1194.33C582.066 1173.85 579.928 1150.39 585.141 1129.97C599.774 1097.3 648.857 1043.43 670.428 1018.2C645.512 986.195 600.726 941.448 584.699 905.414C580.307 895.539 581.126 831.579 583.493 818.223C584.651 811.335 586.98 804.696 590.378 798.593C601.106 779.65 621.445 772.895 642.182 773.115C662.088 774.288 726.425 768.662 742.036 777.027C797.984 807.005 869.703 855.324 924.078 886.141C923.191 882.085 922.64 877.835 922.153 873.71C918.662 845.966 926.411 817.977 943.675 795.98C963.568 771.115 989.994 759.69 1021.02 756.418Z"/><path fill="#FEF7E6" transform="translate(-331 -339)" d="M633.127 805.286C645.685 804.907 722.243 803.814 728.825 806.967C754.724 819.376 804.159 851.394 831.319 867.539C864.343 887.169 898.216 908.04 931.196 928.059C934.999 930.368 935.995 931.635 938.291 935.205C940.779 939.073 941.784 947.107 940.401 951.161C935.102 966.702 894.538 986.277 879.407 994.872C858.385 1007.81 835.69 1024.18 812.555 1032.93C790.843 1041.15 747.017 1038.35 726.144 1028.3C720.821 1025.74 716.591 1021.69 712.483 1017.52C696.436 1001.23 620.931 912.13 615.778 896.081C611.306 882.153 611.087 828.191 617.908 815.448C621.112 809.461 627.049 807.307 633.127 805.286Z"/><path fill="#FEF7E6" transform="translate(-331 -339)" d="M1324.99 805.386C1353.65 804.588 1396.15 802.255 1423 808.662C1439.58 815.957 1434.94 895.097 1428.35 903.635C1396.26 944.525 1362.28 989.618 1326.29 1026.72C1311.36 1042.11 1244.75 1039.71 1224.97 1027.87C1190.8 1006.95 1154.87 988.358 1121.09 966.617C1106.3 957.101 1101.78 937.325 1118.78 927.673C1177.57 894.307 1232.74 855.084 1291.22 821.23C1301.43 815.319 1313.75 808.535 1324.99 805.386Z"/><path fill="#FEF7E6" transform="translate(-331 -339)" d="M1160.91 1030.89C1185.57 1034.02 1211.51 1063.76 1239.07 1067.1C1249.19 1068.33 1257.13 1068.33 1266.97 1068.64C1305.43 1069.86 1325.81 1065.14 1356.8 1042.89C1371.46 1059.65 1427.22 1124.85 1431.46 1140.98C1437.27 1163.1 1433.59 1194.41 1432.71 1217.62C1421.4 1239.32 1397.86 1233.7 1376.61 1233.11C1361.75 1232.7 1293.06 1236.54 1285.83 1229.69C1263.7 1208.76 1241.31 1177.67 1222.73 1153.56C1206.06 1131.98 1189.67 1110.19 1173.57 1088.19C1166.03 1077.89 1157.29 1066.86 1151.24 1055.75C1145.92 1045.98 1153.37 1036.41 1160.91 1030.89Z"/><path fill="#FEF7E6" transform="translate(-331 -339)" d="M882.034 1030.84C917.011 1039.07 877.995 1080.86 868.444 1093.88C845.545 1125.46 822.159 1156.68 798.296 1187.53C789.504 1198.76 774.067 1218.98 762.345 1228.71C758.582 1231.78 751.061 1233.36 746.099 1233.49C708.794 1234.42 670.751 1234.19 633.504 1232.67C625.169 1232.33 619.765 1226.31 615.504 1219.89C615.098 1218.3 614.761 1216.86 614.562 1215.23C612.581 1199.01 611.748 1152.14 616.862 1137.36C620.586 1126.6 678.998 1056.91 691.04 1041.77C723.218 1066.25 734.213 1065.94 772.632 1068.74C822.975 1072.42 839.994 1053.72 882.034 1030.84Z"/><path fill="#E7921A" transform="translate(-331 -339)" d="M1119.57 1061.02C1121.08 1062.69 1126.04 1072.93 1127.57 1075.6C1136.29 1090.82 1146.66 1104.55 1157.04 1118.65L1157.22 1138.82C1145.96 1145.5 1133.49 1153.1 1121.51 1158.13C1053.82 1186.57 990.44 1183.72 923.412 1158.09C912.091 1153.03 903.196 1148.29 892.555 1142.21L892.921 1111.73C908.371 1089.95 914.944 1088.92 925.815 1061.45C990.063 1094.71 1056.16 1098.78 1119.57 1061.02Z"/><path fill="#E7921A" transform="translate(-331 -339)" d="M906.086 1237.39C917.818 1241.16 929.393 1248.22 940.937 1252.22C1016.72 1278.5 1069.47 1268.3 1139.15 1236.71C1133.8 1251.15 1127.48 1263.17 1120.37 1276.69L1106.64 1301C1036.82 1327.68 1006.25 1333.08 935.903 1301.04C922.483 1281.07 913.902 1259.9 906.086 1237.39Z"/></g></svg>